<?xml version="1.0" encoding="utf-8"?>
<!-- Generator: Adobe Illustrator 27.5.0, SVG Export Plug-In . SVG Version: 6.00 Build 0)  -->
<svg version="1.1" id="Layer_1" xmlns="http://www.w3.org/2000/svg" xmlns:xlink="http://www.w3.org/1999/xlink" x="0px" y="0px"
	 viewBox="0 0 3000 3000" style="enable-background:new 0 0 3000 3000;" xml:space="preserve">
<rect style="fill:#FFF5E0;" width="3000" height="3000"/>
<g>
	<g>
		
			<ellipse transform="matrix(0.7071 -0.7071 0.7071 0.7071 -621.3192 1500.0005)" style="fill:#FFFFFF;" cx="1500.001" cy="1499.999" rx="888.854" ry="888.855"/>
		<circle style="fill:#001E39;" cx="1500.001" cy="1499.998" r="855.475"/>
	</g>
	<g>
		<path style="fill:#FFE68C;" d="M2275.264,1306.008c-19.576-78.429-50.715-152.278-91.542-219.611H816.279
			c-40.827,67.333-71.967,141.183-91.542,219.611H2275.264z"/>
		<path style="fill:#FFB54D;" d="M2297.87,1543.218c0.764-14.31,1.155-28.719,1.155-43.219c0-58.402-6.334-115.313-18.237-170.148
			H719.212c-11.903,54.835-18.236,111.746-18.236,170.148c0,14.5,0.391,28.909,1.155,43.219H2297.87z"/>
		<path style="fill:#FF6006;" d="M703.789,1567.06c7.544,90.639,30.203,176.981,65.466,256.502h1461.49
			c35.263-79.521,57.923-165.863,65.468-256.502H703.789z"/>
		<path style="fill:#FFE8C9;" d="M2168.633,1062.554c-46.955-71.611-105.044-135.266-171.896-188.398h-993.473
			c-66.852,53.132-124.942,116.787-171.897,188.398H2168.633z"/>
		<path style="fill:#FFFFFF;" d="M1965.183,850.314c-131.025-93.983-291.633-149.34-465.183-149.34s-334.157,55.357-465.183,149.34
			H1965.183z"/>
	</g>
	<g>
		<polygon style="fill:#001E39;" points="1182.177,1823.562 1324.851,1691.413 1359.935,1696.091 1492.084,1506.639 
			1544.71,1555.756 1703.756,1331.22 1846.43,1518.333 1889.7,1465.707 2212.471,1823.562 		"/>
		<polygon style="fill:#FFFFFF;" points="1721.298,1387.354 1721.298,1450.504 1690.892,1469.216 1721.298,1501.961 
			1683.875,1577.391 1835.905,1719.48 1783.279,1603.704 1979.749,1746.378 2096.695,1773.275 1948.173,1661.007 2011.324,1684.396 
			1896.717,1567.45 1874.497,1607.212 		"/>
		<path style="fill:#FFFFFF;" d="M1472.203,1643.465c0-3.508,52.626-74.845,52.626-74.845l-26.313-21.05L1472.203,1643.465z"/>
	</g>
	<g>
		<circle style="fill:#001E39;" cx="1451.097" cy="1133.779" r="178.838"/>
		<circle style="fill:#FFC410;" cx="1451.097" cy="1133.779" r="153.838"/>
	</g>
	<path style="fill:#001E39;" d="M1207.511,1363.656c25.301,12.328,49.198,27.535,71.08,45.235
		c-38.047-74.259-120.367-133.3-202.67-125.014c15.246-13.116,45.87-25.192,75.483-21.214c-3.843-2.504-7.04-6.83-10.883-9.334
		c23.058,8.002,46.116,16.005,69.174,24.007c-18.518-20.695-45.471-33.611-73.203-35.079c43.436-9.166,88.908-8.551,132.08,1.786
		c-53.707-56.03-153.088-58.975-210.018-6.223c26.058-50.772,69.116-92.632,120.604-117.245
		c-71.651-3.667-137.728,46.005-161.384,113.736c-37.997-54.465-97.151-93.754-162.091-107.655
		c43.313,36.123,79.8,79.007,107.605,128.076c-44.366-25.933-100.04-31.651-148.75-15.276c51.765-8.275,106.758,6.227,147.711,38.95
		c-69.799-9.36-143.343,14.832-193.956,63.8c37.729-13.619,77.95-20.298,118.055-19.605
		c-54.491,40.465-88.748,106.917-90.099,174.777c19.854-47.967,46.906-92.948,79.97-132.971
		c-6.865,8.767-11.09,19.574-11.991,30.673c11.09-21.04,27.05-39.494,46.271-53.501c-12.078,9.723-21.67,22.511-27.621,36.83
		c22.013-26.89,53.194-44.404,86.839-53.106c-71.782,45.006-108.507,139.347-86.046,221.04
		c5.405-31.181,15.886-61.477,30.905-89.332c1.579,8.122,1.737,16.814,3.315,24.937c6.594-20.524,13.188-41.049,19.782-61.573
		c-0.124,10.307-0.247,20.615-0.371,30.922c11.335-37.242,31.484-71.77,58.332-99.96c0.352,0.337,0.674,0.704,1.02,1.047
		c-51.176,149.862-68.481,312.282-48.941,471.589h43.939c-28.352-149.777-22.569-307.067,17.164-456.371
		c12.823,20.365,17.43,45.975,11.576,69.376c3.106-10.458,6.211-20.917,9.317-31.375c3.164,23.38,6.327,46.76,9.49,70.14
		c2.31-8.232,4.62-16.465,6.93-24.697c16.315,34.665,25.84,72.678,29.288,110.836c15.283-67.292,7.578-139.588-21.543-202.148
		c50.467,40.043,89.721,94.071,112.209,154.441c-3.705-14.706-7.411-29.411-11.116-44.117c13.09,21.191,20.176,46.046,20.229,70.954
		c15.838-92.268-46.7-191.401-136.795-216.839c28.158-1.125,56.595,5.894,80.995,19.993c-4.901-5.946-9.802-11.891-14.703-17.837
		c20.756,10.856,41.511,21.712,62.266,32.567c-7.159-6.104-13.515-15.968-20.673-22.072c17.068,10.12,61.657,40.773,61.657,40.773
		S1201.995,1360.968,1207.511,1363.656z"/>
	<g>
		<path style="fill:#004C75;" d="M828.399,1886.317c222.957-17.193,446.359-21.084,670.118-21.649
			c223.763,0.481,447.162,4.362,670.117,21.648c-222.951,17.288-446.356,21.169-670.117,21.65
			C1274.755,1907.401,1051.359,1903.511,828.399,1886.317L828.399,1886.317z"/>
		<path style="fill:#004C75;" d="M990.123,1961.913c168.914-17.213,338.422-21.059,508.393-21.649
			c169.979,0.505,339.479,4.344,508.392,21.649c-168.908,17.306-338.417,21.145-508.392,21.65
			C1328.542,1982.972,1159.043,1979.127,990.123,1961.913L990.123,1961.913z"/>
		<path style="fill:#004C75;" d="M1081.375,2045.145c138.596-17.213,277.678-21.059,417.141-21.649
			c139.469,0.505,278.546,4.344,417.141,21.648c-138.59,17.306-277.674,21.145-417.14,21.65
			C1359.051,2066.204,1219.975,2062.359,1081.375,2045.145L1081.375,2045.145z"/>
		<path style="fill:#004C75;" d="M1293.583,2130.642c70.691-12.473,141.795-15.365,213.24-15.769
			c71.45,0.342,142.549,3.225,213.24,15.768c-70.687,12.544-141.792,15.426-213.24,15.77
			C1435.375,2146.007,1364.277,2143.115,1293.583,2130.642L1293.583,2130.642z"/>
		<path style="fill:#004C75;" d="M1370.572,2203.285c47.583-12.473,95.443-15.365,143.533-15.768
			c48.094,0.342,95.951,3.225,143.533,15.768c-47.58,12.544-95.441,15.426-143.533,15.77
			C1466.013,2218.651,1418.157,2215.759,1370.572,2203.285L1370.572,2203.285z"/>
	</g>
</g>
</svg>
